<svg xmlns="http://www.w3.org/2000/svg" xmlns:xlink="http://www.w3.org/1999/xlink" width="180" height="180" viewBox="0 0 180 180">
  <defs>
    <linearGradient id="linear-gradient" x1="0.5" x2="0.5" y2="1" gradientUnits="objectBoundingBox">
      <stop offset="0" stop-color="#687ec9"/>
      <stop offset="1" stop-color="#5870c4"/>
    </linearGradient>
    <clipPath id="clip-discord">
      <rect width="180" height="180"/>
    </clipPath>
  </defs>
  <g id="discord" clip-path="url(#clip-discord)">
    <rect id="Rectangle_1" data-name="Rectangle 1" width="180" height="180" rx="40" fill="url(#linear-gradient)"/>
    <path id="icons8-discord" d="M104.688,16.77c-10.315-8.3-26.634-9.708-27.332-9.759A2.572,2.572,0,0,0,74.795,8.53a17.181,17.181,0,0,0-.79,2.156,63.637,63.637,0,0,1,22.787,8.179,2.591,2.591,0,1,1-2.733,4.4C81.02,15.181,64.743,14.776,61.6,14.776s-19.426.4-32.454,8.493a2.591,2.591,0,0,1-2.733-4.4A63.6,63.6,0,0,1,49.2,10.7a21.463,21.463,0,0,0-.779-2.166,2.557,2.557,0,0,0-2.571-1.518c-.7.051-17.017,1.458-27.474,9.87C12.923,21.933,2,51.452,2,76.972a2.6,2.6,0,0,0,.344,1.286C9.876,91.5,30.436,94.961,35.123,95.113H35.2a2.59,2.59,0,0,0,2.1-1.063l4.738-6.519c-12.785-3.3-19.315-8.908-19.689-9.242A2.593,2.593,0,0,1,25.779,74.4c.152.142,12.178,10.346,35.825,10.346C85.292,84.747,97.319,74.5,97.44,74.4a2.589,2.589,0,0,1,3.422,3.887c-.375.334-6.9,5.942-19.689,9.242L85.91,94.05a2.59,2.59,0,0,0,2.1,1.063h.081c4.687-.152,25.247-3.614,32.778-16.855a2.6,2.6,0,0,0,.344-1.286C121.209,51.452,110.286,21.933,104.688,16.77ZM44.76,66.606c-5.011,0-9.07-4.636-9.07-10.366s4.059-10.366,9.07-10.366,9.07,4.636,9.07,10.366S49.771,66.606,44.76,66.606Zm33.689,0c-5.011,0-9.07-4.636-9.07-10.366s4.059-10.366,9.07-10.366,9.07,4.636,9.07,10.366S83.46,66.606,78.449,66.606Z" transform="translate(28.396 38.944)" fill="#fff"/>
  </g>
</svg>
