<svg xmlns="http://www.w3.org/2000/svg" xmlns:xlink="http://www.w3.org/1999/xlink" width="180" height="180" viewBox="0 0 180 180">
  <defs>
    <linearGradient id="linear-gradient" x1="-2.111" y1="6.903" x2="-2.111" y2="6.886" gradientUnits="objectBoundingBox">
      <stop offset="0" stop-color="#d3d7dd"/>
      <stop offset="1" stop-color="#888c90"/>
    </linearGradient>
    <linearGradient id="linear-gradient-2" x1="-2.735" y1="8.494" x2="-2.735" y2="8.473" gradientUnits="objectBoundingBox">
      <stop offset="0" stop-color="#d9dadb"/>
      <stop offset="1" stop-color="#7d8082"/>
    </linearGradient>
    <clipPath id="clip-settings">
      <rect width="180" height="180"/>
    </clipPath>
  </defs>
  <g id="settings" clip-path="url(#clip-settings)">
    <g id="Symbols_8_" transform="translate(-5 -5)">
      <g id="Graphics-_x2F_-App-Icons-_x2F_-Settings-" transform="translate(5 5)">
        <g id="Settings-Icon">
          <path id="Background_9_" d="M122.2,5c18,0,27,0,36.8,3a37.841,37.841,0,0,1,22.8,22.8c3.2,9.8,3.2,19,3.2,37v54.4c0,18,0,27-3,36.8a37.841,37.841,0,0,1-22.8,22.8c-10,3.2-19,3.2-37,3.2H67.8c-18,0-27,0-36.8-3A38.476,38.476,0,0,1,8,159c-3-9.6-3-18.6-3-36.8V67.8c0-18,0-27,3-36.8A38.158,38.158,0,0,1,31,8.2C40.6,5,49.6,5,67.8,5Z" transform="translate(-5 -5)" fill="url(#linear-gradient)"/>
          <circle id="Oval_3_" cx="78" cy="78" r="78" transform="translate(12 12)" fill="#2e2e30"/>
          <g id="Shape_3_" transform="translate(48.329 34.945) rotate(8)">
            <g id="Group_1" data-name="Group 1">
              <path id="path-3_14_" d="M48.35,6.876h2l1.4-5.6c.4-1.8.8-1.6,1,0l.6,5.6h0c.6,0,1.4.2,2,.2h0l2-5.4c.6-1.6,1-1.6,1,.2l-.2,5.6a7.106,7.106,0,0,0,2,.4l2.6-5c.8-1.6,1.2-1.4,1,.4l-.8,5.6h0a8.358,8.358,0,0,1,2,.8h0l3-4.8c1-1.4,1.4-1.2,1,.4l-1.4,5.6c.6.4,1.2.6,1.8,1l3.6-4.4c1.2-1.4,1.6-1.2,1,.6l-2,5.2h0a11.094,11.094,0,0,1,1.6,1.2h0l4.2-3.8c1.2-1.2,1.6-1,.8.6l-2.8,5.4a10.017,10.017,0,0,1,1.6,1.4l4.6-3.2c1.4-1,1.8-.8.8.8l-3.2,4.6h0a11.433,11.433,0,0,1,1.4,1.6h0l5-2.8c1.6-.8,1.8-.4.6.8l-3.8,4.2,1.2,1.8,5.2-2.2c1.6-.6,1.8-.2.6.8l-4.2,3.8h0c.4.6.6,1.2,1,1.8l5.4-1.6c1.6-.4,2,0,.4,1l-4.6,3.2a20.749,20.749,0,0,1,.8,2l5.4-.8c1.8-.2,1.8.2.4,1l-4.8,2.6h0c.2.6.4,1.4.6,2h0l5.6-.2c1.8,0,1.8.4.2,1l-5.2,2a6.8,6.8,0,0,1,.2,2l5.4.6c1.8.2,1.8.6,0,1l-5.4,1.4h0v2.2h0l5.4,1c1.8.4,1.8.8,0,1l-5.4.8c0,.8-.2,1.4-.2,2.2l5.2,1.8c1.6.6,1.6,1-.2,1h-5.4c-.2.6-.2,1.4-.4,2h0l5,2.4c1.6.8,1.4,1.2-.2,1l-5.4-.6c-.2.6-.4,1.4-.6,2l4.6,3c1.4,1,1.4,1.4-.4,1l-5.2-1.2h0c-.4.6-.6,1.4-1,2h0l4.2,3.4c1.4,1,1.2,1.6-.6,1l-5.4-2.6-1.2,1.8,3.8,3.8c1.2,1.2,1,1.6-.6.8l-4.8-2.4h0a5.391,5.391,0,0,1-1.4,1.6l3.4,4.2c1,1.4.8,1.8-.8.8l-4.6-3a10.017,10.017,0,0,1-1.6,1.4l2.8,4.6c1,1.6.6,1.8-.8.6l-4.2-3.4h0l-1.8,1.2,2.2,5c.8,1.6.4,1.8-.8.6l-3.6-4a17.588,17.588,0,0,1-2,1.2l1.6,5.2c.6,1.6.2,1.8-1,.4l-3.2-4.4h0c-.6.2-1.4.6-2,.8h0l1,5.2c.4,1.8-.2,1.8-1,.4l-2.6-4.2c-.6.2-1.4.4-2,.6l.4,5.4c.2,1.8-.4,1.8-1,.2l-2.2-5h0c-.6.2-1.4.2-2.2.4h0l-.4,5.4c0,1.8-.6,1.8-1,.2l-1.2-5.4a8.2,8.2,0,0,0-2.2.2l-1,5.4c-.4,1.8-.8,1.8-1,0l-.8-5.4h0a8.2,8.2,0,0,1-2.2-.2h0l-1.6,5.2c-.4,1.6-1,1.6-1-.2l-.2-5.4c-.8-.2-1.4-.2-2-.4l-2.4,5c-.6,1.6-1.2,1.6-1-.2l.4-5.4c-.6-.2-1.4-.4-2-.6h0l-2.8,4.8c-.8,1.6-1.4,1.4-1-.4l1-5.4a20.749,20.749,0,0,0-2-.8l-3.4,4.4c-1,1.4-1.4,1.2-1-.4l1.8-5.2h0a8.107,8.107,0,0,0-1.8-1h0l-3.8,4c-1.2,1.2-1.6,1-.8-.6l2.4-5a5.391,5.391,0,0,1-1.6-1.4l-4.2,3c-1.4,1.2-1.8.8-.8-.6l2.8-4.8h0a9.24,9.24,0,0,1-1.4-1.4h0l-4.6,3c-1.4,1-1.8.6-.8-.8l3.4-4.4c-.4-.6-.8-1-1.2-1.6l-5,2.4c-1.6.8-1.8.4-.6-.8l4-4h0a8.107,8.107,0,0,1-1-1.8l-5.2,1.8c-1.6.6-1.8.2-.4-1l4.4-3.4a7.1,7.1,0,0,1-.8-1.8l-5.8,1.2c-1.8.4-2,0-.4-1l4.8-2.8h0c-.2-.6-.4-1.4-.6-2h0l-5.6.6c-1.8.2-1.8-.2-.2-1l5-2.4c-.2-.6-.2-1.4-.4-2l-5.6-.2c-1.8,0-1.8-.6-.2-1l5.4-1.8h0c0-.6-.2-1.4-.2-2h0l-5.6-.8c-1.8-.2-1.8-.8,0-1l5.6-1v-2l-5.4-1.4c-1.6-.4-1.6-1,.2-1l5.6-.4h0a7.106,7.106,0,0,1,.4-2h0l-5.2-2c-1.6-.6-1.6-1,.2-1l5.6.2c.2-.6.4-1.4.6-2l-5-2.6c-1.6-.8-1.4-1.2.4-1l5.6,1h0c.2-.6.6-1.2.8-1.8h0l-4.6-3.2c-1.4-1-1.2-1.4.4-1l5.4,1.6c.4-.6.6-1.2,1-1.8l-4.2-3.8c-1.4-1.2-1-1.6.6-.8l5.2,2.2h0c.4-.6.8-1,1.2-1.6h0l-3.8-4.4c-1.2-1.4-.8-1.6.6-.8l5,2.8c.4-.6,1-1,1.4-1.6l-3.2-5.2c-1-1.4-.6-1.8.8-.8l4.6,3.4h0a11.094,11.094,0,0,1,1.6-1.2l-2.6-5c-.8-1.6-.4-1.8.8-.6l4.2,4a11.094,11.094,0,0,0,1.6-1.2l-2-5.4c-.6-1.6-.2-1.8,1-.6l3.6,4.4h0a7.1,7.1,0,0,1,1.8-.8h0l-1.4-5.6c-.4-1.8,0-2,1-.4l3,4.8,1.8-.6-.6-5.6c-.2-1.8.2-1.8,1-.2l2.4,5.2h0a7.106,7.106,0,0,1,2-.4h0v-5.8c0-1.8.4-1.8,1-.2l2,5.4c.6,0,1.4-.2,2-.2l.6-5.6c.2-1.8.6-1.8,1,0l1.4,5.2Zm.6,76.4a34.4,34.4,0,1,0-34.6-34.6A34.4,34.4,0,0,0,48.95,83.276Z"/>
            </g>
            <g id="Group_2" data-name="Group 2">
              <path id="path-3_4_" d="M48.35,6.876h2l1.4-5.6c.4-1.8.8-1.6,1,0l.6,5.6h0c.6,0,1.4.2,2,.2h0l2-5.4c.6-1.6,1-1.6,1,.2l-.2,5.6a7.106,7.106,0,0,0,2,.4l2.6-5c.8-1.6,1.2-1.4,1,.4l-.8,5.6h0a8.358,8.358,0,0,1,2,.8h0l3-4.8c1-1.4,1.4-1.2,1,.4l-1.4,5.6c.6.4,1.2.6,1.8,1l3.6-4.4c1.2-1.4,1.6-1.2,1,.6l-2,5.2h0a11.094,11.094,0,0,1,1.6,1.2h0l4.2-3.8c1.2-1.2,1.6-1,.8.6l-2.8,5.4a10.017,10.017,0,0,1,1.6,1.4l4.6-3.2c1.4-1,1.8-.8.8.8l-3.2,4.6h0a11.433,11.433,0,0,1,1.4,1.6h0l5-2.8c1.6-.8,1.8-.4.6.8l-3.8,4.2,1.2,1.8,5.2-2.2c1.6-.6,1.8-.2.6.8l-4.2,3.8h0c.4.6.6,1.2,1,1.8l5.4-1.6c1.6-.4,2,0,.4,1l-4.6,3.2a20.749,20.749,0,0,1,.8,2l5.4-.8c1.8-.2,1.8.2.4,1l-4.8,2.6h0c.2.6.4,1.4.6,2h0l5.6-.2c1.8,0,1.8.4.2,1l-5.2,2a6.8,6.8,0,0,1,.2,2l5.4.6c1.8.2,1.8.6,0,1l-5.4,1.4h0v2.2h0l5.4,1c1.8.4,1.8.8,0,1l-5.4.8c0,.8-.2,1.4-.2,2.2l5.2,1.8c1.6.6,1.6,1-.2,1h-5.4c-.2.6-.2,1.4-.4,2h0l5,2.4c1.6.8,1.4,1.2-.2,1l-5.4-.6c-.2.6-.4,1.4-.6,2l4.6,3c1.4,1,1.4,1.4-.4,1l-5.2-1.2h0c-.4.6-.6,1.4-1,2h0l4.2,3.4c1.4,1,1.2,1.6-.6,1l-5.4-2.6-1.2,1.8,3.8,3.8c1.2,1.2,1,1.6-.6.8l-4.8-2.4h0a5.391,5.391,0,0,1-1.4,1.6l3.4,4.2c1,1.4.8,1.8-.8.8l-4.6-3a10.017,10.017,0,0,1-1.6,1.4l2.8,4.6c1,1.6.6,1.8-.8.6l-4.2-3.4h0l-1.8,1.2,2.2,5c.8,1.6.4,1.8-.8.6l-3.6-4a17.588,17.588,0,0,1-2,1.2l1.6,5.2c.6,1.6.2,1.8-1,.4l-3.2-4.4h0c-.6.2-1.4.6-2,.8h0l1,5.2c.4,1.8-.2,1.8-1,.4l-2.6-4.2c-.6.2-1.4.4-2,.6l.4,5.4c.2,1.8-.4,1.8-1,.2l-2.2-5h0c-.6.2-1.4.2-2.2.4h0l-.4,5.4c0,1.8-.6,1.8-1,.2l-1.2-5.4a8.2,8.2,0,0,0-2.2.2l-1,5.4c-.4,1.8-.8,1.8-1,0l-.8-5.4h0a8.2,8.2,0,0,1-2.2-.2h0l-1.6,5.2c-.4,1.6-1,1.6-1-.2l-.2-5.4c-.8-.2-1.4-.2-2-.4l-2.4,5c-.6,1.6-1.2,1.6-1-.2l.4-5.4c-.6-.2-1.4-.4-2-.6h0l-2.8,4.8c-.8,1.6-1.4,1.4-1-.4l1-5.4a20.749,20.749,0,0,0-2-.8l-3.4,4.4c-1,1.4-1.4,1.2-1-.4l1.8-5.2h0a8.107,8.107,0,0,0-1.8-1h0l-3.8,4c-1.2,1.2-1.6,1-.8-.6l2.4-5a5.391,5.391,0,0,1-1.6-1.4l-4.2,3c-1.4,1.2-1.8.8-.8-.6l2.8-4.8h0a9.24,9.24,0,0,1-1.4-1.4h0l-4.6,3c-1.4,1-1.8.6-.8-.8l3.4-4.4c-.4-.6-.8-1-1.2-1.6l-5,2.4c-1.6.8-1.8.4-.6-.8l4-4h0a8.107,8.107,0,0,1-1-1.8l-5.2,1.8c-1.6.6-1.8.2-.4-1l4.4-3.4a7.1,7.1,0,0,1-.8-1.8l-5.8,1.2c-1.8.4-2,0-.4-1l4.8-2.8h0c-.2-.6-.4-1.4-.6-2h0l-5.6.6c-1.8.2-1.8-.2-.2-1l5-2.4c-.2-.6-.2-1.4-.4-2l-5.6-.2c-1.8,0-1.8-.6-.2-1l5.4-1.8h0c0-.6-.2-1.4-.2-2h0l-5.6-.8c-1.8-.2-1.8-.8,0-1l5.6-1v-2l-5.4-1.4c-1.6-.4-1.6-1,.2-1l5.6-.4h0a7.106,7.106,0,0,1,.4-2h0l-5.2-2c-1.6-.6-1.6-1,.2-1l5.6.2c.2-.6.4-1.4.6-2l-5-2.6c-1.6-.8-1.4-1.2.4-1l5.6,1h0c.2-.6.6-1.2.8-1.8h0l-4.6-3.2c-1.4-1-1.2-1.4.4-1l5.4,1.6c.4-.6.6-1.2,1-1.8l-4.2-3.8c-1.4-1.2-1-1.6.6-.8l5.2,2.2h0c.4-.6.8-1,1.2-1.6h0l-3.8-4.4c-1.2-1.4-.8-1.6.6-.8l5,2.8c.4-.6,1-1,1.4-1.6l-3.2-5.2c-1-1.4-.6-1.8.8-.8l4.6,3.4h0a11.094,11.094,0,0,1,1.6-1.2l-2.6-5c-.8-1.6-.4-1.8.8-.6l4.2,4a11.094,11.094,0,0,0,1.6-1.2l-2-5.4c-.6-1.6-.2-1.8,1-.6l3.6,4.4h0a7.1,7.1,0,0,1,1.8-.8h0l-1.4-5.6c-.4-1.8,0-2,1-.4l3,4.8,1.8-.6-.6-5.6c-.2-1.8.2-1.8,1-.2l2.4,5.2h0a7.106,7.106,0,0,1,2-.4h0v-5.8c0-1.8.4-1.8,1-.2l2,5.4c.6,0,1.4-.2,2-.2l.6-5.6c.2-1.8.6-1.8,1,0l1.4,5.2Zm.6,76.4a34.4,34.4,0,1,0-34.6-34.6A34.4,34.4,0,0,0,48.95,83.276Z" fill="#7f7f7f"/>
            </g>
            <g id="Group_3" data-name="Group 3">
              <path id="path-3_15_" d="M48.35,6.876h2l1.4-5.6c.4-1.8.8-1.6,1,0l.6,5.6h0c.6,0,1.4.2,2,.2h0l2-5.4c.6-1.6,1-1.6,1,.2l-.2,5.6a7.106,7.106,0,0,0,2,.4l2.6-5c.8-1.6,1.2-1.4,1,.4l-.8,5.6h0a8.358,8.358,0,0,1,2,.8h0l3-4.8c1-1.4,1.4-1.2,1,.4l-1.4,5.6c.6.4,1.2.6,1.8,1l3.6-4.4c1.2-1.4,1.6-1.2,1,.6l-2,5.2h0a11.094,11.094,0,0,1,1.6,1.2h0l4.2-3.8c1.2-1.2,1.6-1,.8.6l-2.8,5.4a10.017,10.017,0,0,1,1.6,1.4l4.6-3.2c1.4-1,1.8-.8.8.8l-3.2,4.6h0a11.433,11.433,0,0,1,1.4,1.6h0l5-2.8c1.6-.8,1.8-.4.6.8l-3.8,4.2,1.2,1.8,5.2-2.2c1.6-.6,1.8-.2.6.8l-4.2,3.8h0c.4.6.6,1.2,1,1.8l5.4-1.6c1.6-.4,2,0,.4,1l-4.6,3.2a20.749,20.749,0,0,1,.8,2l5.4-.8c1.8-.2,1.8.2.4,1l-4.8,2.6h0c.2.6.4,1.4.6,2h0l5.6-.2c1.8,0,1.8.4.2,1l-5.2,2a6.8,6.8,0,0,1,.2,2l5.4.6c1.8.2,1.8.6,0,1l-5.4,1.4h0v2.2h0l5.4,1c1.8.4,1.8.8,0,1l-5.4.8c0,.8-.2,1.4-.2,2.2l5.2,1.8c1.6.6,1.6,1-.2,1h-5.4c-.2.6-.2,1.4-.4,2h0l5,2.4c1.6.8,1.4,1.2-.2,1l-5.4-.6c-.2.6-.4,1.4-.6,2l4.6,3c1.4,1,1.4,1.4-.4,1l-5.2-1.2h0c-.4.6-.6,1.4-1,2h0l4.2,3.4c1.4,1,1.2,1.6-.6,1l-5.4-2.6-1.2,1.8,3.8,3.8c1.2,1.2,1,1.6-.6.8l-4.8-2.4h0a5.391,5.391,0,0,1-1.4,1.6l3.4,4.2c1,1.4.8,1.8-.8.8l-4.6-3a10.017,10.017,0,0,1-1.6,1.4l2.8,4.6c1,1.6.6,1.8-.8.6l-4.2-3.4h0l-1.8,1.2,2.2,5c.8,1.6.4,1.8-.8.6l-3.6-4a17.588,17.588,0,0,1-2,1.2l1.6,5.2c.6,1.6.2,1.8-1,.4l-3.2-4.4h0c-.6.2-1.4.6-2,.8h0l1,5.2c.4,1.8-.2,1.8-1,.4l-2.6-4.2c-.6.2-1.4.4-2,.6l.4,5.4c.2,1.8-.4,1.8-1,.2l-2.2-5h0c-.6.2-1.4.2-2.2.4h0l-.4,5.4c0,1.8-.6,1.8-1,.2l-1.2-5.4a8.2,8.2,0,0,0-2.2.2l-1,5.4c-.4,1.8-.8,1.8-1,0l-.8-5.4h0a8.2,8.2,0,0,1-2.2-.2h0l-1.6,5.2c-.4,1.6-1,1.6-1-.2l-.2-5.4c-.8-.2-1.4-.2-2-.4l-2.4,5c-.6,1.6-1.2,1.6-1-.2l.4-5.4c-.6-.2-1.4-.4-2-.6h0l-2.8,4.8c-.8,1.6-1.4,1.4-1-.4l1-5.4a20.749,20.749,0,0,0-2-.8l-3.4,4.4c-1,1.4-1.4,1.2-1-.4l1.8-5.2h0a8.107,8.107,0,0,0-1.8-1h0l-3.8,4c-1.2,1.2-1.6,1-.8-.6l2.4-5a5.391,5.391,0,0,1-1.6-1.4l-4.2,3c-1.4,1.2-1.8.8-.8-.6l2.8-4.8h0a9.24,9.24,0,0,1-1.4-1.4h0l-4.6,3c-1.4,1-1.8.6-.8-.8l3.4-4.4c-.4-.6-.8-1-1.2-1.6l-5,2.4c-1.6.8-1.8.4-.6-.8l4-4h0a8.107,8.107,0,0,1-1-1.8l-5.2,1.8c-1.6.6-1.8.2-.4-1l4.4-3.4a7.1,7.1,0,0,1-.8-1.8l-5.8,1.2c-1.8.4-2,0-.4-1l4.8-2.8h0c-.2-.6-.4-1.4-.6-2h0l-5.6.6c-1.8.2-1.8-.2-.2-1l5-2.4c-.2-.6-.2-1.4-.4-2l-5.6-.2c-1.8,0-1.8-.6-.2-1l5.4-1.8h0c0-.6-.2-1.4-.2-2h0l-5.6-.8c-1.8-.2-1.8-.8,0-1l5.6-1v-2l-5.4-1.4c-1.6-.4-1.6-1,.2-1l5.6-.4h0a7.106,7.106,0,0,1,.4-2h0l-5.2-2c-1.6-.6-1.6-1,.2-1l5.6.2c.2-.6.4-1.4.6-2l-5-2.6c-1.6-.8-1.4-1.2.4-1l5.6,1h0c.2-.6.6-1.2.8-1.8h0l-4.6-3.2c-1.4-1-1.2-1.4.4-1l5.4,1.6c.4-.6.6-1.2,1-1.8l-4.2-3.8c-1.4-1.2-1-1.6.6-.8l5.2,2.2h0c.4-.6.8-1,1.2-1.6h0l-3.8-4.4c-1.2-1.4-.8-1.6.6-.8l5,2.8c.4-.6,1-1,1.4-1.6l-3.2-5.2c-1-1.4-.6-1.8.8-.8l4.6,3.4h0a11.094,11.094,0,0,1,1.6-1.2l-2.6-5c-.8-1.6-.4-1.8.8-.6l4.2,4a11.094,11.094,0,0,0,1.6-1.2l-2-5.4c-.6-1.6-.2-1.8,1-.6l3.6,4.4h0a7.1,7.1,0,0,1,1.8-.8h0l-1.4-5.6c-.4-1.8,0-2,1-.4l3,4.8,1.8-.6-.6-5.6c-.2-1.8.2-1.8,1-.2l2.4,5.2h0a7.106,7.106,0,0,1,2-.4h0v-5.8c0-1.8.4-1.8,1-.2l2,5.4c.6,0,1.4-.2,2-.2l.6-5.6c.2-1.8.6-1.8,1,0l1.4,5.2Zm.6,76.4a34.4,34.4,0,1,0-34.6-34.6A34.4,34.4,0,0,0,48.95,83.276Z" fill="#777"/>
            </g>
          </g>
          <g id="Shape_1_" transform="translate(17.45 17.65)">
            <g id="Group_4" data-name="Group 4">
              <path id="Path_1" data-name="Path 1" d="M107.272,51.7h-38.2c-3.2,0-7.4,2.2-9,5.2l-19.6,34c-2.2,3.6-.4,8,3.8,10,6.2,3.4,22.4,3.2,34.8-.4a56.245,56.245,0,0,0,24.2-17c8.4-10.6,11-21.4,11-24.6A7.121,7.121,0,0,0,107.272,51.7Z" transform="translate(12.078 24.05)" fill="none"/>
              <circle id="Ellipse_1" data-name="Ellipse 1" cx="3" cy="3" r="3" transform="translate(69.55 69.35)" fill="none"/>
              <path id="Path_2" data-name="Path 2" d="M156.475,89.775c2.6-.4,2.6-1,0-1.6l-7.4-1.4v-3.6l7.2-1.8c2.6-.6,2.4-1.4-.2-1.6l-7.4-.6c-.2-1.2-.2-2.2-.4-3.4l7-2.6c2.4-1,2.4-1.6-.2-1.6l-7.4.2c-.2-1.2-.6-2.2-.8-3.4l6.6-3.4c2.4-1.2,2-1.8-.4-1.4l-7.4,1.2c-.4-1-.8-2.2-1.2-3.2l6.2-4.2c2.2-1.6,1.8-2.2-.6-1.4l-7.2,2c-.6-1-1-2-1.6-3l5.6-5c2-1.8,1.6-2.4-.8-1.4l-6.8,2.8a33.929,33.929,0,0,0-2-2.8l5-5.6c1.8-2,1.4-2.4-1-1.2l-7,3.6c-.8-.8-1.4-1.8-2.2-2.6l4.4-6.2c1.6-2.2,1-2.6-1.2-1.2l-6,4.4a13.771,13.771,0,0,0-2.6-2.2l3.6-6.6c1.2-2.4.6-2.8-1.2-1l-5.4,5c-1-.6-1.8-1.4-2.8-2l2.8-7c1-2.4.4-2.8-1.4-.8l-4.8,5.6c-1-.6-2-1-3-1.6l1.8-7.2c.6-2.6,0-2.8-1.4-.6l-4,6.2c-1-.4-2.2-.8-3.2-1.2l1-7.4c.4-2.6-.2-2.8-1.4-.4l-3.4,6.6a16.938,16.938,0,0,0-3.4-.8l.2-7.4c0-2.6-.6-2.8-1.6-.2l-2.6,7a19.7,19.7,0,0,0-3.4-.4l-1.2-7.2c-.2-2.6-1-2.6-1.6-.2l-1.8,7.2h-3.4l-1.6-7.4c-.6-2.6-1.2-2.6-1.6,0l-.8,7.4a19.7,19.7,0,0,0-3.4.4l-2.6-7c-.8-2.4-1.6-2.4-1.6.2l.2,7.4a20.924,20.924,0,0,0-3.4.8l-3.2-6.8c-1.2-2.4-1.8-2.2-1.6.4l.8,7.4c-1,.4-2.2.8-3.2,1.2l-4-6.2c-1.4-2.2-2-2-1.4.6l1.8,7.2a21.86,21.86,0,0,0-3,1.6l-4.8-5.8c-1.6-2-2.2-1.6-1.4.8l2.6,7c-1,.6-2,1.2-2.8,1.8l-5.4-5.2c-2-1.8-2.4-1.4-1.2,1l3.4,6.6c-.8.8-1.8,1.4-2.6,2.2l-6-4.4c-2.2-1.6-2.6-1-1.2,1l4.2,6.2a30.76,30.76,0,0,0-2.4,2.6l-6.4-3.8c-2.2-1.4-2.8-.8-1,1.2l4.8,5.6h0a33.929,33.929,0,0,0-2,2.8l-6.8-3c-2.4-1-2.8-.4-.8,1.4l5.6,5a21.859,21.859,0,0,0-1.6,3l-7.2-2c-2.6-.8-2.8,0-.6,1.4l6,4.2c-.4,1-1,2-1.4,3.2l-7.4-1.2c-2.6-.4-2.8.2-.6,1.4l6.6,3.6c-.4,1-.6,2.2-1,3.2l-7.4-.2c-2.6,0-2.8.6-.4,1.6l7,2.6c-.2,1.2-.4,2.2-.6,3.4l-7.4,1c-2.6.2-2.6.8-.2,1.6l7.2,2c0,1.2-.2,2.2-.2,3.4l-7.4,1.4c-2.6.4-2.6,1.2,0,1.6l7.4,1c0,1.2.2,2.2.2,3.4l-7.2,2.2c-2.6.8-2.4,1.4.2,1.6l7.4.2c.2,1.2.4,2.2.6,3.4l-6.8,3.2c-2.4,1.2-2.2,1.8.4,1.6l7.4-.8c.4,1.2.6,2.2,1,3.4l-6.4,3.8c-2.2,1.4-2,2,.6,1.4l7.4-1.6c.4,1,1,2,1.4,3.2l-5.8,4.6c-2,1.6-1.8,2.2.8,1.4l7-2.4,1.8,3-4.8,4.8c-1.8,1.8-1.4,2.4.8,1.2l6.8-3.2a13.771,13.771,0,0,0,2.2,2.6l-4.6,5.8c-1.6,2-1.2,2.6,1,1.2l6.2-4,2.4,2.4-3.8,6.4c-1.4,2.2-.8,2.6,1.2,1l5.8-4.8a34.192,34.192,0,0,0,2.8,2.2l-3.2,6.8c-1.2,2.4-.6,2.8,1.2.8l5.2-5.4,3,1.8-2.4,7c-.8,2.4-.2,2.8,1.4.8l4.6-6c1,.4,2,1,3.2,1.4l-1.4,7.4c-.6,2.6.2,2.8,1.4.6l3.8-6.4a19.659,19.659,0,0,0,3.2,1l-.8,7.6c-.2,2.6.4,2.8,1.6.4l3-6.8c1.2.2,2.2.4,3.4.6l.4,7.4c.2,2.6.8,2.6,1.6.2l2-7.2a20.568,20.568,0,0,0,3.4.2l1.2,7.4c.4,2.6,1,2.6,1.6,0l1.4-7.4a19.4,19.4,0,0,0,3.4-.2l2,7.2c.8,2.6,1.4,2.4,1.6-.2l.4-7.4c1.2-.2,2.2-.4,3.4-.6l2.8,6.8c1,2.4,1.6,2.2,1.6-.4l-.8-7a14.988,14.988,0,0,0,3.2-1l3.8,6.4c1.4,2.2,2,2,1.4-.6l-1.4-7.4a22.222,22.222,0,0,0,3.2-1.4l4.4,6c1.6,2.2,2.2,1.8,1.4-.8l-2-6.8,3-1.8,5,5.4c1.8,2,2.4,1.6,1.4-.8l-3-6.8c1-.6,1.8-1.4,2.8-2l5.8,4.8c2,1.6,2.6,1.2,1.2-1l-3.8-6.4,2.4-2.4,6.2,4c2.2,1.4,2.6,1,1-1.2l-4.6-5.8c.8-.8,1.4-1.8,2.2-2.6l6.8,3.4c2.4,1.2,2.8.6,1-1.2l-5.4-5.4c.6-1,1.2-1.8,1.8-2.8l7,2.4c2.4.8,2.8.2.8-1.4l-5.8-4.6c.6-1,1-2,1.6-3.2l7.2,1.6c2.6.6,2.8,0,.6-1.4l-6.4-4c.4-1,.8-2.2,1.2-3.2l7.4.8c2.6.2,2.8-.4.4-1.6l-6.8-3.2c.2-1.2.6-2.2.8-3.4l7.4-.2c2.6,0,2.8-.8.2-1.6l-7-1.8c.2-1.2.2-2.2.4-3.4Zm-96.4,35.2c-2,3.6-7.2,4-10.4,2.2-2.2-1.2-7.4-6.2-12.2-14a55.647,55.647,0,0,1,11.6-68c3.6-2,8.6-1.6,10.6,1.8l19.8,34c1.6,2.8,1.6,8.2-.2,11Zm69-3.6a56.245,56.245,0,0,1-24.2,17c-12.4,3.6-28.6,3.8-34.8.4-4.2-2-5.8-6.4-3.8-10l19.6-34a11.772,11.772,0,0,1,9-5.2h38.2a7.121,7.121,0,0,1,7,7.2C140.075,99.975,137.475,110.975,129.075,121.375Zm-45.8-35.2a3,3,0,1,1,3,3A3.076,3.076,0,0,1,83.275,86.175Zm50.6-3.6h-40c-3.4-.2-7.4-3-9-6l-19-33c-2-3.6.2-7.6,3.4-9.4,2.2-1.2,9.2-3.4,18.4-3.4a55.348,55.348,0,0,1,52.8,44.4A6.636,6.636,0,0,1,133.875,82.575Z" transform="translate(-13.725 -13.825)" fill="url(#linear-gradient-2)"/>
            </g>
          </g>
        </g>
      </g>
    </g>
  </g>
</svg>
