<svg xmlns="http://www.w3.org/2000/svg" width="180" height="180" viewBox="0 0 180 180">
  <g id="snapchat" transform="translate(-2566 -494)">
    <rect id="Rectangle_2" data-name="Rectangle 2" width="180" height="180" rx="40" transform="translate(2566 494)" fill="#fffb53"/>
    <path id="Icon_awesome-snapchat-ghost" data-name="Icon awesome-snapchat-ghost" d="M128.753,96.182c-1.313,3.064-6.865,5.315-16.977,6.885-.52.7-.951,3.7-1.64,6.038a2.919,2.919,0,0,1-3.057,2.235H107c-2.368,0-4.84-1.09-9.792-1.09-6.684,0-8.988,1.523-14.178,5.189-5.5,3.891-10.78,7.25-18.658,6.906-7.976.588-14.625-4.261-18.366-6.907-5.221-3.691-7.518-5.187-14.175-5.187-4.754,0-7.747,1.19-9.792,1.19a2.991,2.991,0,0,1-3.131-2.278c-.681-2.316-1.11-5.359-1.644-6.082C12.056,102.271.3,100.221,0,94.977a2.678,2.678,0,0,1,2.237-2.79C19.779,89.3,27.678,71.293,28.006,70.528c.019-.044.039-.087.06-.13.936-1.9,1.145-3.49.621-4.726-1.273-3-6.773-4.074-9.087-4.989-5.977-2.361-6.809-5.073-6.455-6.932.614-3.235,5.476-5.226,8.318-3.895A14.423,14.423,0,0,0,27.4,51.443a5.144,5.144,0,0,0,2.51-.547c-.515-9.057-1.79-22,1.433-29.229C39.853,2.583,57.895,1.1,63.218,1.1c.238,0,2.3-.022,2.548-.022,13.143,0,25.772,6.75,31.939,20.577,3.22,7.221,1.953,20.111,1.435,29.239a4.939,4.939,0,0,0,2.167.539,15.057,15.057,0,0,0,5.562-1.577,6.822,6.822,0,0,1,5.162.015l.007,0c2.388.853,3.891,2.575,3.929,4.5.046,2.457-2.148,4.578-6.522,6.305-.534.21-1.183.417-1.874.636-2.469.783-6.2,1.967-7.212,4.353-.524,1.236-.317,2.826.62,4.725.022.042.042.086.06.13.328.764,8.22,18.767,25.766,21.659A2.751,2.751,0,0,1,128.753,96.182Z" transform="translate(2591.478 522.264)" fill="#fff" stroke="#000" stroke-width="6"/>
  </g>
</svg>
