<svg xmlns="http://www.w3.org/2000/svg" xmlns:xlink="http://www.w3.org/1999/xlink" width="180" height="180" viewBox="0 0 180 180">
  <defs>
    <clipPath id="clip-twitter">
      <rect width="180" height="180"/>
    </clipPath>
  </defs>
  <g id="twitter" clip-path="url(#clip-twitter)">
    <rect id="Rectangle_1" data-name="Rectangle 1" width="180" height="180" rx="40" fill="#1da1f3"/>
    <path id="Icon_awesome-twitter" data-name="Icon awesome-twitter" d="M94.419,24.682c.067.935.067,1.87.067,2.8,0,28.513-21.7,61.366-61.366,61.366A60.949,60.949,0,0,1,0,79.17a44.617,44.617,0,0,0,5.208.267,43.2,43.2,0,0,0,26.777-9.215A21.606,21.606,0,0,1,11.819,55.264a27.2,27.2,0,0,0,4.073.334,22.811,22.811,0,0,0,5.676-.734A21.571,21.571,0,0,1,4.273,33.7v-.267a21.721,21.721,0,0,0,9.749,2.738A21.6,21.6,0,0,1,7.345,7.32,61.307,61.307,0,0,0,51.817,29.89a24.348,24.348,0,0,1-.534-4.941A21.589,21.589,0,0,1,88.609,10.192,42.464,42.464,0,0,0,102.3,4.983a21.51,21.51,0,0,1-9.482,11.886,43.238,43.238,0,0,0,12.42-3.339A46.363,46.363,0,0,1,94.419,24.682Z" transform="translate(37.382 43.884)" fill="#fff"/>
  </g>
</svg>
